<svg width="1769" height="354" viewBox="0 0 1769 354" fill="none" xmlns="http://www.w3.org/2000/svg">
<path d="M251.534 203.516L229.544 143.116C228.704 140.806 229.794 138.226 232.044 137.236C235.854 135.546 239.724 133.966 243.664 132.506C244.174 132.316 244.684 132.116 245.194 131.926C248.604 130.676 252.034 129.536 255.474 128.476C257.854 127.746 260.374 129.026 261.224 131.356L325.644 308.346L339.924 347.596C341.354 351.516 337.324 355.196 333.554 353.436L2.70434 199.156C0.424337 198.096 -0.605663 195.426 0.364337 193.106C1.97434 189.256 3.65434 185.426 5.41434 181.606C5.64434 181.096 5.87434 180.586 6.11434 180.066C8.29434 175.396 10.5643 170.816 12.9243 166.286C18.2543 156.076 24.0443 146.226 30.2343 136.766C33.4043 131.936 36.6843 127.206 40.0643 122.576C43.4943 117.886 47.0243 113.316 50.6543 108.846C86.0943 65.2455 131.214 31.9155 181.304 10.5555C186.494 8.34554 191.724 6.26554 197.014 4.30554C200.874 2.88554 204.764 1.52554 208.664 0.235543C211.064 -0.554457 213.664 0.705543 214.534 3.07554L224.664 30.9055L236.354 63.0155L246.344 90.4855C247.254 92.9955 245.894 95.7455 243.344 96.5455C240.054 97.5755 236.784 98.6855 233.524 99.8655C233.014 100.056 232.514 100.256 232.004 100.446C226.694 102.416 221.464 104.566 216.364 106.876C183.944 121.556 155.644 142.986 133.044 169.726C130.314 172.956 127.664 176.266 125.094 179.646C123.544 181.686 120.644 182.116 118.584 180.596L98.6743 165.886C96.5843 164.336 96.1443 161.376 97.7143 159.306C100.254 155.946 102.874 152.656 105.554 149.426C131.284 118.456 163.624 93.5955 200.744 76.5155C202.954 75.4955 204.004 72.9555 203.174 70.6755L194.694 47.3655C193.764 44.8055 190.844 43.5755 188.364 44.7055C145.184 64.2155 107.674 93.0355 78.0843 129.116C74.4243 133.576 70.8843 138.146 67.4743 142.816C64.0943 147.466 60.8443 152.216 57.7043 157.066C53.6643 163.316 49.8243 169.726 46.2143 176.306C44.9143 178.676 45.8843 181.656 48.3443 182.806L273.754 287.916C277.534 289.676 281.554 285.996 280.124 282.076L278.314 277.106L251.524 203.516H251.534Z" fill="#D7342B"/>
<path d="M515.244 47.956C532.974 56.986 546.564 69.886 556.014 86.656C565.464 103.436 570.194 123.186 570.194 145.906C570.194 168.626 565.464 188.326 556.014 204.996C546.564 221.676 532.974 234.416 515.244 243.226C497.504 252.046 476.544 256.446 452.334 256.446H383.214V34.416H452.334C476.544 34.416 497.514 38.926 515.244 47.956ZM517.944 209.776C533.024 194.596 540.564 173.306 540.564 145.906C540.564 118.506 532.974 96.746 517.794 81.246C502.604 65.746 480.794 57.986 452.334 57.986H412.194V232.546H452.334C481.004 232.546 502.874 224.956 517.954 209.776H517.944Z" fill="#343434"/>
<path d="M595.694 121.536C602.914 108.056 612.844 97.5959 625.474 90.1559C638.104 82.7259 652.174 79.0059 667.684 79.0059C683.194 79.0059 696.244 82.3059 707.504 88.8859C718.754 95.4659 727.144 103.756 732.664 113.736V81.8759H761.974V256.436H732.664V223.946C726.934 234.136 718.384 242.576 707.024 249.266C695.664 255.956 682.444 259.296 667.364 259.296C652.284 259.296 637.844 255.476 625.314 247.826C612.784 240.176 602.904 229.456 595.694 215.656C588.474 201.856 584.864 186.136 584.864 168.516C584.864 150.896 588.474 135.016 595.694 121.536ZM724.704 134.436C719.394 124.676 712.224 117.186 703.204 111.976C694.174 106.776 684.254 104.166 673.424 104.166C662.594 104.166 652.714 106.716 643.804 111.816C634.884 116.916 627.764 124.346 622.464 134.116C617.154 143.886 614.504 155.356 614.504 168.516C614.504 181.676 617.154 193.526 622.464 203.396C627.774 213.276 634.884 220.816 643.804 226.016C652.724 231.226 662.594 233.816 673.424 233.816C684.254 233.816 694.184 231.216 703.204 226.016C712.224 220.816 719.394 213.276 724.704 203.396C730.004 193.526 732.664 182.006 732.664 168.836C732.664 155.666 730.004 144.206 724.704 134.436Z" fill="#343434"/>
<path d="M830.555 105.766V208.656C830.555 217.156 832.355 223.146 835.975 226.656C839.585 230.156 845.855 231.906 854.765 231.906H876.105V256.436H849.985C833.845 256.436 821.735 252.726 813.675 245.286C805.605 237.856 801.575 225.646 801.575 208.656V105.766H778.955V81.876H801.575V37.916H830.565V81.876H876.115V105.766H830.565H830.555Z" fill="#343434"/>
<path d="M889.265 121.536C896.485 108.056 906.415 97.5959 919.045 90.1559C931.675 82.7259 945.745 79.0059 961.255 79.0059C976.765 79.0059 989.815 82.3059 1001.07 88.8859C1012.32 95.4659 1020.71 103.756 1026.23 113.736V81.8759H1055.54V256.436H1026.23V223.946C1020.5 234.136 1011.95 242.576 1000.59 249.266C989.235 255.956 976.015 259.296 960.935 259.296C945.855 259.296 931.415 255.476 918.885 247.826C906.355 240.176 896.475 229.456 889.265 215.656C882.045 201.856 878.435 186.136 878.435 168.516C878.435 150.896 882.045 135.016 889.265 121.536ZM1018.26 134.436C1012.95 124.676 1005.78 117.186 996.765 111.976C987.735 106.776 977.815 104.166 966.985 104.166C956.155 104.166 946.275 106.716 937.365 111.816C928.445 116.916 921.325 124.346 916.025 134.116C910.715 143.886 908.065 155.356 908.065 168.516C908.065 181.676 910.715 193.526 916.025 203.396C921.335 213.276 928.445 220.816 937.365 226.016C946.285 231.226 956.155 233.816 966.985 233.816C977.815 233.816 987.745 231.216 996.765 226.016C1005.78 220.816 1012.95 213.276 1018.26 203.396C1023.56 193.526 1026.22 182.006 1026.22 168.836C1026.22 155.666 1023.56 144.206 1018.26 134.436Z" fill="#343434"/>
<path d="M1143.73 89.0456C1155.09 82.3556 1168.31 79.0156 1183.39 79.0156C1198.47 79.0156 1212.96 82.7356 1225.6 90.1656C1238.23 97.6056 1248.16 108.056 1255.38 121.546C1262.6 135.036 1266.21 150.696 1266.21 168.526C1266.21 186.356 1262.6 201.866 1255.38 215.666C1248.16 229.476 1238.23 240.196 1225.6 247.836C1212.96 255.486 1198.89 259.306 1183.39 259.306C1167.89 259.306 1155.41 255.966 1144.05 249.276C1132.69 242.586 1124.03 234.256 1118.09 224.266V339.256H1089.1V81.8756H1118.09V114.046C1123.82 104.066 1132.37 95.7256 1143.73 89.0456ZM1228.62 134.116C1223.31 124.356 1216.14 116.916 1207.12 111.816C1198.09 106.726 1188.17 104.166 1177.34 104.166C1166.51 104.166 1156.9 106.766 1147.88 111.976C1138.85 117.186 1131.63 124.716 1126.22 134.596C1120.81 144.476 1118.1 155.886 1118.1 168.836C1118.1 181.786 1120.81 193.526 1126.22 203.396C1131.64 213.276 1138.85 220.816 1147.88 226.016C1156.9 231.226 1166.72 233.816 1177.34 233.816C1187.96 233.816 1198.1 231.216 1207.12 226.016C1216.14 220.816 1223.31 213.276 1228.62 203.396C1233.93 193.526 1236.58 181.896 1236.58 168.516C1236.58 155.136 1233.92 143.886 1228.62 134.116Z" fill="#343434"/>
<path d="M1289.85 47.7956C1286.03 43.9756 1284.12 39.3056 1284.12 33.7756C1284.12 28.2456 1286.03 23.5856 1289.85 19.7556C1293.67 15.9356 1298.34 14.0156 1303.87 14.0156C1309.4 14.0156 1313.69 15.9256 1317.41 19.7556C1321.12 23.5756 1322.99 28.2556 1322.99 33.7756C1322.99 39.2956 1321.13 43.9656 1317.41 47.7956C1313.69 51.6156 1309.18 53.5356 1303.87 53.5356C1298.56 53.5356 1293.68 51.6256 1289.85 47.7956ZM1317.88 81.8756V256.436H1288.89V81.8756H1317.88Z" fill="#343434"/>
<path d="M1369.44 232.546H1455.13V256.436H1336.32V232.546L1421.05 105.446H1336.96V81.876H1454.5V105.446L1369.45 232.546H1369.44Z" fill="#343434"/>
<path d="M1501.41 232.546H1587.1V256.436H1468.29V232.546L1553.02 105.446H1468.93V81.876H1586.47V105.446L1501.42 232.546H1501.41Z" fill="#343434"/>
<path d="M1601.74 121.536C1608.96 108.056 1618.89 97.5959 1631.52 90.1559C1644.15 82.7259 1658.22 79.0059 1673.73 79.0059C1689.24 79.0059 1702.29 82.3059 1713.55 88.8859C1724.8 95.4659 1733.19 103.756 1738.71 113.736V81.8759H1768.02V256.436H1738.71V223.946C1732.98 234.136 1724.43 242.576 1713.07 249.266C1701.71 255.956 1688.49 259.296 1673.41 259.296C1658.33 259.296 1643.89 255.476 1631.36 247.826C1618.83 240.176 1608.95 229.456 1601.74 215.656C1594.52 201.856 1590.91 186.136 1590.91 168.516C1590.91 150.896 1594.52 135.016 1601.74 121.536ZM1730.75 134.436C1725.44 124.676 1718.27 117.186 1709.25 111.976C1700.22 106.776 1690.3 104.166 1679.47 104.166C1668.64 104.166 1658.76 106.716 1649.85 111.816C1640.93 116.916 1633.81 124.346 1628.51 134.116C1623.2 143.886 1620.55 155.356 1620.55 168.516C1620.55 181.676 1623.2 193.526 1628.51 203.396C1633.82 213.276 1640.93 220.816 1649.85 226.016C1658.77 231.226 1668.64 233.816 1679.47 233.816C1690.3 233.816 1700.23 231.216 1709.25 226.016C1718.27 220.816 1725.44 213.276 1730.75 203.396C1736.05 193.526 1738.71 182.006 1738.71 168.836C1738.71 155.666 1736.05 144.206 1730.75 134.436Z" fill="#343434"/>
</svg>
