<svg width="37" height="38" viewBox="0 0 37 38" fill="none" xmlns="http://www.w3.org/2000/svg">
<path d="M27.0094 21.8532L24.6482 15.3676C24.558 15.1195 24.675 14.8425 24.9166 14.7362C25.3257 14.5547 25.7413 14.385 26.1644 14.2283C26.2191 14.2079 26.2739 14.1864 26.3287 14.166C26.6948 14.0318 27.0631 13.9094 27.4325 13.7955C27.6881 13.7172 27.9587 13.8546 28.0499 14.1048L34.9673 33.1097L36.5006 37.3244C36.6542 37.7453 36.2215 38.1404 35.8166 37.9515L0.290388 21.3851C0.0455648 21.2712 -0.0650354 20.9845 0.039122 20.7354C0.212002 20.322 0.392398 19.9108 0.581384 19.5006C0.606082 19.4458 0.630779 19.391 0.65655 19.3352C0.890635 18.8337 1.13438 18.342 1.3878 17.8555C1.96013 16.7592 2.58185 15.7015 3.24652 14.6857C3.58691 14.1671 3.93912 13.6592 4.30206 13.162C4.67037 12.6584 5.04941 12.1677 5.4392 11.6877C9.2447 7.00598 14.0896 3.42705 19.4682 1.13344C20.0255 0.896134 20.5871 0.672786 21.1551 0.462324C21.5696 0.309846 21.9873 0.163811 22.4061 0.0252923C22.6638 -0.0595369 22.943 0.0757603 23.0364 0.330248L24.1242 3.3186L25.3794 6.76653L26.4521 9.71622C26.5499 9.98574 26.4038 10.281 26.13 10.3669C25.7767 10.4775 25.4256 10.5967 25.0755 10.7234C25.0208 10.7438 24.9671 10.7653 24.9123 10.7857C24.3421 10.9972 23.7806 11.2281 23.2329 11.4762C19.7517 13.0525 16.7129 15.3536 14.2861 18.2249C13.993 18.5717 13.7084 18.9272 13.4325 19.2901C13.266 19.5092 12.9546 19.5553 12.7334 19.3921L10.5955 17.8126C10.3711 17.6461 10.3239 17.3283 10.4924 17.106C10.7652 16.7452 11.0465 16.392 11.3343 16.0451C14.0971 12.7196 17.5698 10.0502 21.5557 8.21614C21.793 8.10662 21.9057 7.83387 21.8166 7.58905L20.906 5.08605C20.8062 4.81116 20.4926 4.67909 20.2263 4.80042C15.5897 6.89538 11.5619 9.99004 8.3846 13.8643C7.99159 14.3432 7.61147 14.8339 7.24531 15.3353C6.88237 15.8347 6.53339 16.3447 6.19622 16.8655C5.76241 17.5366 5.35007 18.2249 4.96244 18.9315C4.82284 19.1859 4.927 19.5059 5.19115 19.6294L29.3954 30.916C29.8013 31.105 30.2329 30.7098 30.0794 30.2889L29.885 29.7552L27.0084 21.8532H27.0094Z" fill="#D7342B"/>
</svg>
